<svg 
 xmlns="http://www.w3.org/2000/svg"
 xmlns:xlink="http://www.w3.org/1999/xlink"
 width="18px" height="18px">
<path fill-rule="evenodd"  fill="rgb(153, 153, 153)"
 d="M8.999,17.999 C4.029,17.999 -0.001,13.970 -0.001,8.999 C-0.001,4.029 4.029,-0.000 8.999,-0.000 C13.970,-0.000 17.999,4.029 17.999,8.999 C17.999,13.970 13.970,17.999 8.999,17.999 ZM8.999,1.782 C5.019,1.782 1.782,5.020 1.782,8.999 C1.782,12.979 5.019,16.217 8.999,16.217 C12.979,16.217 16.217,12.979 16.217,8.999 C16.217,5.020 12.979,1.782 8.999,1.782 ZM4.448,8.128 L13.551,8.128 L13.551,9.871 L4.448,9.871 L4.448,8.128 Z"/>
</svg>