<svg 
 xmlns="http://www.w3.org/2000/svg"
 xmlns:xlink="http://www.w3.org/1999/xlink"
 width="18px" height="18px">
<path fill-rule="evenodd"  fill="rgb(0, 184, 83)"
 d="M8.999,17.999 C4.029,17.999 -0.001,13.970 -0.001,8.999 C-0.001,4.029 4.029,-0.000 8.999,-0.000 C13.970,-0.000 17.999,4.029 17.999,8.999 C17.999,13.970 13.970,17.999 8.999,17.999 ZM8.999,1.782 C5.019,1.782 1.781,5.020 1.781,8.999 C1.781,12.979 5.019,16.217 8.999,16.217 C12.979,16.217 16.217,12.979 16.217,8.999 C16.217,5.020 12.979,1.782 8.999,1.782 ZM11.859,8.046 C11.056,8.046 10.406,7.396 10.406,6.593 C10.406,5.791 11.056,5.140 11.859,5.140 C12.661,5.140 13.312,5.791 13.312,6.593 C13.312,7.396 12.661,8.046 11.859,8.046 ZM12.725,10.850 C12.966,11.478 11.790,13.810 9.277,13.909 C6.472,14.021 5.405,11.661 5.405,11.122 C5.405,10.507 5.954,10.517 5.954,10.517 L9.277,10.514 L12.133,10.518 C12.133,10.518 12.598,10.521 12.725,10.850 ZM6.139,8.046 C5.337,8.046 4.686,7.396 4.686,6.593 C4.686,5.791 5.337,5.140 6.139,5.140 C6.942,5.140 7.593,5.791 7.593,6.593 C7.593,7.396 6.942,8.046 6.139,8.046 Z"/>
</svg>