<svg 
 xmlns="http://www.w3.org/2000/svg"
 xmlns:xlink="http://www.w3.org/1999/xlink"
 width="18px" height="18px">
<path fill-rule="evenodd"  fill="rgb(255, 0, 0)"
 d="M8.999,17.999 C4.029,17.999 -0.001,13.970 -0.001,8.999 C-0.001,4.029 4.029,-0.001 8.999,-0.001 C13.970,-0.001 17.999,4.029 17.999,8.999 C17.999,13.970 13.970,17.999 8.999,17.999 ZM8.999,1.781 C5.019,1.781 1.782,5.019 1.782,8.999 C1.782,12.979 5.019,16.217 8.999,16.217 C12.979,16.217 16.217,12.979 16.217,8.999 C16.217,5.019 12.979,1.781 8.999,1.781 ZM11.602,12.833 L8.999,10.231 L6.397,12.833 L5.165,11.601 L7.767,8.999 L5.165,6.397 L6.397,5.165 L8.999,7.767 L11.602,5.165 L12.834,6.397 L10.231,8.999 L12.834,11.601 L11.602,12.833 Z"/>
</svg>