<svg 
 xmlns="http://www.w3.org/2000/svg"
 xmlns:xlink="http://www.w3.org/1999/xlink"
 width="18px" height="18px">
<path fill-rule="evenodd"  fill="rgb(255, 159, 0)"
 d="M8.999,17.999 C4.029,17.999 -0.001,13.970 -0.001,9.000 C-0.001,4.029 4.029,-0.000 8.999,-0.000 C13.970,-0.000 17.999,4.029 17.999,9.000 C17.999,13.970 13.970,17.999 8.999,17.999 ZM8.999,1.782 C5.019,1.782 1.781,5.020 1.781,9.000 C1.781,12.979 5.019,16.217 8.999,16.217 C12.979,16.217 16.217,12.979 16.217,9.000 C16.217,5.020 12.979,1.782 8.999,1.782 ZM7.831,9.760 L7.726,9.654 L7.726,3.667 L9.367,3.667 L9.367,8.979 L12.752,12.364 L11.601,13.516 L7.831,9.760 Z"/>
</svg>