<svg 
 xmlns="http://www.w3.org/2000/svg"
 xmlns:xlink="http://www.w3.org/1999/xlink"
 width="18px" height="18px">
<path fill-rule="evenodd"  fill="rgb(153, 153, 153)"
 d="M8.999,17.999 C4.029,17.999 -0.001,13.970 -0.001,8.999 C-0.001,4.029 4.029,-0.001 8.999,-0.001 C13.970,-0.001 17.999,4.029 17.999,8.999 C17.999,13.970 13.970,17.999 8.999,17.999 ZM8.999,1.782 C5.019,1.782 1.782,5.019 1.782,8.999 C1.782,12.979 5.019,16.217 8.999,16.217 C12.979,16.217 16.217,12.979 16.217,8.999 C16.217,5.019 12.979,1.782 8.999,1.782 ZM12.561,12.812 C12.364,12.870 12.154,12.802 12.014,12.633 C10.359,10.745 7.717,10.706 6.114,12.534 C5.896,12.784 5.541,12.784 5.321,12.534 C5.102,12.285 5.102,11.880 5.321,11.630 C7.367,9.297 10.719,9.346 12.808,11.729 L12.808,11.730 C12.955,11.890 13.015,12.129 12.964,12.354 C12.912,12.579 12.758,12.754 12.561,12.812 ZM11.414,7.865 C10.809,7.865 10.320,7.375 10.320,6.771 L10.320,6.265 C10.320,5.661 10.809,5.171 11.414,5.171 C12.018,5.171 12.507,5.661 12.507,6.265 L12.507,6.771 C12.507,7.375 12.018,7.865 11.414,7.865 ZM6.585,7.865 L6.585,7.865 C5.981,7.865 5.491,7.375 5.491,6.771 L5.491,6.265 C5.491,5.661 5.981,5.171 6.585,5.171 L6.585,5.171 C7.189,5.171 7.679,5.661 7.679,6.265 L7.679,6.771 C7.679,7.375 7.189,7.865 6.585,7.865 Z"/>
</svg>