<svg 
 xmlns="http://www.w3.org/2000/svg"
 xmlns:xlink="http://www.w3.org/1999/xlink"
 width="31.5px" height="31.5px">
<path fill-rule="evenodd"  stroke="rgb(153, 153, 153)" stroke-width="1px" stroke-linecap="butt" stroke-linejoin="miter" fill="rgb(255, 255, 255)"
 d="M15.500,0.500 C23.784,0.500 30.500,7.216 30.500,15.500 C30.500,23.784 23.784,30.500 15.500,30.500 C7.216,30.500 0.500,23.784 0.500,15.500 C0.500,7.216 7.216,0.500 15.500,0.500 Z"/>
<path fill-rule="evenodd"  fill="rgb(102, 102, 102)"
 d="M22.969,19.203 L21.201,19.203 L21.201,20.969 C21.201,21.262 20.964,21.499 20.671,21.499 C20.378,21.499 20.141,21.262 20.141,20.969 L20.141,19.203 L18.372,19.203 C18.080,19.203 17.842,18.966 17.842,18.673 C17.842,18.381 18.080,18.144 18.372,18.144 L20.141,18.144 L20.141,16.377 C20.141,16.085 20.378,15.847 20.671,15.847 C20.964,15.847 21.201,16.085 21.201,16.377 L21.201,18.144 L22.969,18.144 C23.262,18.144 23.500,18.381 23.500,18.673 C23.500,18.966 23.262,19.203 22.969,19.203 ZM17.525,14.661 C18.146,14.791 18.741,14.990 19.296,15.263 C17.913,15.752 16.921,17.069 16.921,18.619 C16.921,19.804 17.501,20.853 18.393,21.499 L8.500,21.499 C8.755,18.100 11.235,15.335 14.472,14.660 C13.164,14.075 12.250,12.769 12.250,11.245 C12.250,9.176 13.929,7.499 16.000,7.499 C18.071,7.499 19.750,9.176 19.750,11.245 C19.750,12.770 18.834,14.077 17.525,14.661 Z"/>
</svg>