<svg 
 xmlns="http://www.w3.org/2000/svg"
 xmlns:xlink="http://www.w3.org/1999/xlink"
 width="11px" height="7px">
<path fill-rule="evenodd"  fill="rgb(153, 153, 153)"
 d="M5.426,6.982 C4.468,6.982 3.508,6.944 2.553,6.997 C1.996,7.027 1.705,6.875 1.591,6.236 C1.488,5.666 1.262,5.122 1.084,4.569 C0.914,4.039 0.863,3.465 0.241,3.199 C0.058,3.121 -0.065,2.445 0.035,2.143 C0.113,1.909 0.624,1.656 0.863,1.727 C1.127,1.807 1.444,2.227 1.482,2.536 C1.578,3.313 1.888,3.784 2.767,4.113 C3.438,4.365 3.976,4.134 4.343,3.508 C4.605,3.060 4.816,2.569 4.989,2.072 C5.050,1.894 4.989,1.599 4.885,1.433 C4.593,0.969 4.516,0.455 4.925,0.144 C5.171,-0.044 5.717,-0.046 5.975,0.133 C6.400,0.429 6.363,0.928 6.044,1.404 C5.925,1.584 5.927,1.894 5.941,2.139 C5.953,2.333 6.063,2.522 6.140,2.708 C6.870,4.453 7.974,4.691 9.265,3.360 C9.375,3.246 9.406,2.972 9.382,2.786 C9.316,2.251 9.466,1.855 9.945,1.709 C10.404,1.570 10.793,1.737 10.951,2.269 C11.104,2.790 10.873,3.128 10.467,3.399 C10.278,3.525 10.086,3.740 10.011,3.961 C9.749,4.724 9.509,5.500 9.317,6.287 C9.187,6.818 8.960,7.022 8.440,6.997 C7.437,6.948 6.431,6.982 5.426,6.982 L5.426,6.982 Z"/>
</svg>