<svg 
 xmlns="http://www.w3.org/2000/svg"
 xmlns:xlink="http://www.w3.org/1999/xlink"
 width="31.5px" height="31.5px">
<path fill-rule="evenodd"  stroke="rgb(153, 153, 153)" stroke-width="1px" stroke-linecap="butt" stroke-linejoin="miter" fill="rgb(255, 255, 255)"
 d="M15.500,0.500 C23.784,0.500 30.500,7.216 30.500,15.500 C30.500,23.784 23.784,30.500 15.500,30.500 C7.216,30.500 0.500,23.784 0.500,15.500 C0.500,7.216 7.216,0.500 15.500,0.500 Z"/>
<path fill-rule="evenodd"  fill="rgb(102, 102, 102)"
 d="M15.495,13.721 C16.975,13.721 18.186,12.557 18.186,11.134 C18.186,9.712 16.975,8.548 15.495,8.548 C14.015,8.548 12.805,9.712 12.805,11.134 C12.805,12.557 14.015,13.721 15.495,13.721 L15.495,13.721 ZM19.263,18.376 L19.263,16.824 C19.263,16.540 19.504,16.307 19.800,16.307 C20.096,16.307 20.338,16.540 20.338,16.824 L20.338,18.376 L21.953,18.376 C22.249,18.376 22.491,18.609 22.491,18.893 C22.491,19.178 22.249,19.411 21.953,19.411 L20.338,19.411 L20.338,20.962 C20.338,21.247 20.096,21.480 19.800,21.480 C19.504,21.480 19.263,21.247 19.263,20.962 L19.263,19.411 L17.647,19.411 C17.352,19.411 17.110,19.178 17.110,18.893 C17.110,18.609 17.352,18.376 17.647,18.376 L19.263,18.376 ZM18.993,14.420 C19.155,14.523 19.263,14.678 19.263,14.859 C19.263,15.143 19.020,15.376 18.724,15.376 C18.616,15.376 18.535,15.351 18.455,15.299 C17.728,14.937 16.921,14.755 16.033,14.755 L14.957,14.755 C11.998,14.755 9.575,17.083 9.575,19.928 C9.575,20.213 9.818,20.445 10.114,20.445 L16.572,20.445 C16.868,20.445 17.110,20.678 17.110,20.962 C17.110,21.247 16.868,21.480 16.572,21.480 L10.114,21.480 C9.226,21.480 8.499,20.782 8.499,19.928 C8.499,17.109 10.463,14.730 13.154,13.979 C12.294,13.307 11.728,12.298 11.728,11.134 C11.728,9.143 13.423,7.514 15.495,7.514 C17.567,7.514 19.263,9.143 19.263,11.134 C19.263,12.272 18.697,13.307 17.836,13.979 C18.239,14.083 18.643,14.238 18.993,14.420 L18.993,14.420 Z"/>
</svg>